<?xml version="1.0" encoding="UTF-8" standalone="no"?>
<!-- Created with Inkscape (http://www.inkscape.org/) -->

<svg
   width="500"
   height="500"
   viewBox="0 0 132.29166 132.29167"
   version="1.1"
   id="svg5"
   inkscape:version="1.2.2 (b0a8486541, 2022-12-01)"
   sodipodi:docname="shapes.svg"
   xmlns:inkscape="http://www.inkscape.org/namespaces/inkscape"
   xmlns:sodipodi="http://sodipodi.sourceforge.net/DTD/sodipodi-0.dtd"
   xmlns="http://www.w3.org/2000/svg"
   xmlns:svg="http://www.w3.org/2000/svg">
  <sodipodi:namedview
     id="namedview7"
     pagecolor="#ffffff"
     bordercolor="#000000"
     borderopacity="0.25"
     inkscape:showpageshadow="2"
     inkscape:pageopacity="0.0"
     inkscape:pagecheckerboard="0"
     inkscape:deskcolor="#d1d1d1"
     inkscape:document-units="mm"
     showgrid="false"
     inkscape:zoom="0.4792789"
     inkscape:cx="-76.156075"
     inkscape:cy="227.42499"
     inkscape:window-width="1360"
     inkscape:window-height="708"
     inkscape:window-x="0"
     inkscape:window-y="0"
     inkscape:window-maximized="1"
     inkscape:current-layer="layer1" />
  <defs
     id="defs2" />
  <g
     inkscape:label="Layer 1"
     inkscape:groupmode="layer"
     id="layer1">
    <path
       style="fill:#0000ff;stroke-width:1.05833"
       d="m 22.157933,32.584564 c 6.105094,-3.944501 11.957365,-5.446186 18.964841,-7.2563 1.955615,-0.505159 3.857847,-1.234869 5.844416,-1.59978 1.482161,-0.272258 3.091248,0.476542 4.520874,0 0.488249,-0.16275 -0.634235,-1.06749 0.509053,-0.552045 0.946378,0.42667 0.790366,3.722237 0.552043,4.359531 -2.330982,6.233277 -7.721717,11.195217 -11.881628,16.206608 -1.861767,2.242846 -3.682246,4.449696 0.798383,2.755976 0.623893,-0.235836 8.148354,-3.642497 8.719939,-3.945935 1.863243,-0.989142 3.379771,-2.73137 5.420206,-3.266815 0.19303,-0.05065 -0.07796,0.414988 0,0.598694 0.09831,0.231634 0.452081,0.321511 0.495708,0.56933 1.085572,6.166366 -5.033291,12.884743 -8.573908,17.233183 -0.13104,0.160935 -2.343147,2.762681 -2.582825,2.762681 -0.09238,0 0.184758,0 0.277135,0 2.356472,0 -0.433652,0.08508 3.285413,-0.552045 6.057985,-1.037818 13.04235,-0.609719 18.868678,-2.668775 2.949123,-1.042236 3.815506,-3.330615 5.050751,-5.824099 0.849069,-1.713944 2.2495,-2.966434 3.312268,-4.477276 0.551008,-0.783318 0.710504,-1.791772 1.228958,-2.597007 0.36912,-0.573297 1.356278,-2.154341 2.115722,-1.630056 3.550809,2.451307 5.536515,9.041622 5.548918,13.1304 0.01479,4.872758 -6.465652,19.753398 -9.61509,22.303761 -6.874941,5.567212 -13.838243,7.473725 -22.546461,8.454835 -6.882196,0.77538 -13.851477,0 -20.777215,0 -0.608314,0 -1.238608,0.162046 -1.82494,0 -0.162049,-0.04479 0.11888,-0.385488 0,-0.504368 -0.118883,-0.118879 -0.38549,-0.118882 -0.504367,0 -0.237763,0.237768 -0.10449,0.689147 0,1.008751 0.431474,1.319763 0.955315,2.607543 1.442479,3.907779 0.900401,2.403171 1.431179,4.064273 2.857127,6.262963 1.854885,2.860075 7.733958,2.703465 10.55856,3.542765 4.051914,1.20399 5.766694,1.89395 10.101297,1.89395 0.935754,0 1.905283,0.24914 2.807261,0 7.115738,-1.96544 12.003971,-8.605617 17.617715,-12.900976 1.176144,-0.899927 2.203177,-2.035355 3.523363,-2.706396 0.879954,-0.447276 1.967871,-0.259684 2.907432,-0.562338 0.247703,-0.07979 0.320075,-0.434091 0.552046,-0.552045 1.103219,-0.560975 -0.0992,0.941938 1.429607,0 0.156665,-0.09652 -0.164587,-0.469752 0,-0.552045 1.325787,-0.662895 5.466829,1.772782 5.898562,2.208178 1.43868,1.45089 2.294562,3.401724 3.158654,5.25327 0.09775,0.209439 -0.22893,0.661607 0,0.693375 1.099259,0.15253 0.391309,-0.837412 0.608889,-1.113205 0.384656,-0.487574 1.020093,-0.744487 1.382874,-1.248553 0.131019,-0.182044 -0.06654,-0.458679 0,-0.672873 0.244149,-0.785886 1.106199,-1.385239 1.10409,-2.208178 -0.0073,-2.854687 -1.491904,-4.661151 -3.223046,-6.892959 -7.377025,-9.510538 -4.98693,-6.496502 -14.153321,-13.568084 -3.947578,-3.045434 -7.880231,-6.604336 -13.209784,-6.035699 -4.99919,0.533392 -9.377055,2.99266 -14.281321,3.82457 -2.745015,0.465638 0.451376,0.572937 -2.107838,1.104091 -0.686411,0.142459 -13.724072,2.588527 -13.931344,2.41767 -0.587163,-0.484008 -1.032634,-1.117926 -1.548953,-1.67689 -1.4943,-1.443439 -2.830475,-3.070976 -4.482901,-4.330319 -1.171374,-0.89272 -2.772827,-1.123844 -3.906802,-2.063612 -1.638779,-1.35812 1.161895,-1.174107 -0.552045,-1.174107"
       id="path2666" />
  </g>
</svg>
